HIERARCHY
ROOT Hips
{
	OFFSET 0.000000 0.000000 0.000000 
	CHANNELS 6 Xposition Yposition Zposition Zrotation Yrotation Xrotation
	JOINT LeftUpLeg
	{
		OFFSET 1.363060 -1.794630 0.839290 
		CHANNELS 3 Zrotation Yrotation Xrotation
		JOINT LeftLeg
		{
			OFFSET 2.448110 -6.726130 0.000000 
			CHANNELS 3 Zrotation Yrotation Xrotation
			JOINT LeftFoot
			{
				OFFSET 2.562200 -7.039590 0.000000 
				CHANNELS 3 Zrotation Yrotation Xrotation
				JOINT LeftToeBase
				{
					OFFSET 0.157640 -0.433110 2.322550 
					CHANNELS 3 Zrotation Yrotation Xrotation
					End Site
					{
						OFFSET 0.000000 0.000000 0.000000 
					}
				}
			}
		}
	}
	JOINT RightUpLeg
	{
		OFFSET -1.305520 -1.794630 0.839290 
		CHANNELS 3 Zrotation Yrotation Xrotation
		JOINT RightLeg
		{
			OFFSET -2.542530 -6.985550 0.000000 
			CHANNELS 3 Zrotation Yrotation Xrotation
			JOINT RightFoot
			{
				OFFSET -2.568260 -7.056230 0.000000 
				CHANNELS 3 Zrotation Yrotation Xrotation
				JOINT RightToeBase
				{
					OFFSET -0.164730 -0.452590 2.363150 
					CHANNELS 3 Zrotation Yrotation Xrotation
					End Site
					{
						OFFSET 0.000000 0.000000 0.000000 
					}
				}
			}
		}
	}
	JOINT Spine
	{
		OFFSET 0.028270 2.035590 -0.193380 
		CHANNELS 3 Zrotation Yrotation Xrotation
		JOINT Spine1
		{
			OFFSET 0.056720 2.048850 -0.042750 
			CHANNELS 3 Zrotation Yrotation Xrotation
			JOINT Neck1
			{
				OFFSET -0.054170 1.746240 0.172020 
				CHANNELS 3 Zrotation Yrotation Xrotation
				JOINT Head
				{
					OFFSET 0.104070 1.761360 -0.123970 
					CHANNELS 3 Zrotation Yrotation Xrotation
					End Site
					{
						OFFSET 0.000000 0.000000 0.000000 
					}
				}
			}
			JOINT LeftArm
			{
				OFFSET 3.362410 1.200890 -0.311210 
				CHANNELS 3 Zrotation Yrotation Xrotation
				JOINT LeftForeArm
				{
					OFFSET 4.983000 -0.000000 -0.000000 
					CHANNELS 3 Zrotation Yrotation Xrotation
					JOINT LeftHand
					{
						OFFSET 3.483560 -0.000000 -0.000000 
						CHANNELS 3 Zrotation Yrotation Xrotation
						JOINT LeftHandIndex1
						{
							OFFSET 0.715260 -0.000000 -0.000000 
							CHANNELS 3 Zrotation Yrotation Xrotation
							End Site
							{
								OFFSET 0.000000 0.000000 0.000000 
							}
						}
					}
				}
			}
			JOINT RightArm
			{
				OFFSET -3.136600 1.374050 -0.404650 
				CHANNELS 3 Zrotation Yrotation Xrotation
				JOINT RightForeArm
				{
					OFFSET -5.241900 -0.000000 -0.000000 
					CHANNELS 3 Zrotation Yrotation Xrotation
					JOINT RightHand
					{
						OFFSET -3.444170 -0.000000 -0.000000 
						CHANNELS 3 Zrotation Yrotation Xrotation
						JOINT RightHandIndex1
						{
							OFFSET -0.622530 -0.000000 -0.000000 
							CHANNELS 3 Zrotation Yrotation Xrotation
							End Site
							{
								OFFSET 0.000000 0.000000 0.000000 
							}
						}
					}
				}
			}
		}
	}
}
MOTION
Frames: 10
Frame Time: 0.041667
6.907451 14.582685 -0.428105 175.783055 -40.221968 177.518627 -14.052907 2.089790 2.111550 6.554886 13.949593 51.805479 -1.254953 22.576700 -35.867325 0.003100 -0.359300 -0.987300 1.804594 -1.568816 -42.990137 -4.989642 -17.366781 45.893898 -1.634440 4.178853 18.371625 -6.681800 15.058000 -47.660200 1.051324 -0.419461 -1.324583 6.384480 0.572497 -8.259447 8.825697 -19.287205 6.755052 4.918000 -9.681700 3.706500 -82.833531 42.928611 47.389294 115.326008 -56.254886 -85.534150 -0.120854 -0.436279 -81.507250 -7.125000 0.000000 0.000000 12.117104 41.651524 -26.194444 -7.096672 12.157263 -3.554228 3.152214 -0.154956 28.299995 7.125000 0.000000 0.000000 
6.928440 14.506104 -0.492217 175.135808 -39.105543 177.437697 -14.587798 3.146517 2.860857 6.604416 13.904069 51.930965 -1.281881 23.152625 -36.391924 0.000200 -0.100600 -0.276500 1.612393 -1.275157 -44.000618 -5.496000 -17.927206 47.734588 -1.707016 5.540923 18.156191 -6.182500 14.602900 -45.710000 0.956112 0.113436 -1.200114 6.031857 0.791484 -8.278731 8.901050 -19.351218 6.366427 5.004300 -9.681300 3.543900 -83.676718 41.977021 46.795878 114.912814 -56.323681 -85.178919 -0.078488 -0.404966 -78.967212 -7.125000 0.000000 0.000000 10.973427 41.337251 -25.885744 -7.533998 12.797051 -3.606191 3.156321 0.004889 26.082262 7.125000 0.000000 0.000000 
6.953275 14.429107 -0.559238 174.426621 -38.153232 177.403963 -14.992276 4.091953 3.634797 6.625774 13.836594 51.939778 -1.175764 23.227580 -36.816911 0.000700 0.166900 0.458700 1.526314 -1.351002 -44.971664 -6.002234 -18.409410 49.463162 -1.742526 6.698210 17.917530 -5.671700 14.102500 -43.649400 0.895899 0.537957 -1.082668 5.909575 0.973100 -8.316135 8.917569 -19.259665 5.954553 5.086200 -9.605700 3.274700 -84.436105 40.995551 46.501569 114.809512 -56.346024 -84.992211 -0.002696 -0.360243 -76.531359 -7.125000 0.000000 0.000000 9.818790 41.090754 -26.466048 -7.668239 13.059033 -3.601718 3.140368 -0.012518 27.790014 7.125000 0.000000 0.000000 
6.978628 14.359488 -0.627922 174.087522 -37.280777 177.047401 -14.878957 5.042018 4.485931 6.641597 13.725964 51.849153 -1.091160 23.093679 -36.934165 0.000300 0.118100 0.324500 1.847222 -1.574334 -45.661051 -6.420452 -18.778779 50.889124 -1.747179 7.605250 17.562661 -5.489200 13.914400 -42.895500 0.870295 0.945339 -0.967126 5.788401 1.132442 -8.394912 8.825598 -18.929622 5.675645 5.093200 -9.419300 3.014700 -85.066979 39.907803 46.409778 114.366990 -56.430659 -84.525750 0.073593 -0.325270 -73.657912 -7.125000 0.000000 0.000000 8.806946 40.912149 -27.639104 -7.722602 13.195268 -3.594409 3.112533 -0.111148 31.426737 7.125000 0.000000 0.000000 
6.995566 14.315223 -0.693800 174.059891 -36.587064 176.983824 -14.459442 5.800137 4.883207 6.611305 13.606175 51.592250 -1.145292 23.030147 -36.665813 0.002300 -0.312700 -0.859300 2.528936 -2.131206 -46.583279 -6.727466 -19.048305 51.938914 -1.729000 8.079985 17.385350 -5.431200 13.853500 -42.653800 0.846837 1.294203 -0.898823 5.489816 1.250637 -8.312724 8.581086 -18.429362 5.697692 4.955400 -9.161800 2.921600 -85.218138 38.866940 46.719988 114.336764 -56.436508 -84.373859 0.133735 -0.265129 -71.897623 -7.125000 0.000000 0.000000 7.995544 40.724828 -29.151334 -7.907825 13.435479 -3.592360 3.064358 -0.218795 35.242151 7.125000 0.000000 0.000000 
7.016867 14.298494 -0.763939 174.586646 -36.094484 177.047658 -13.458930 6.310367 4.773608 6.551646 13.478302 51.212085 -1.158522 22.575596 -36.137937 0.013200 -0.741400 -2.037500 3.688157 -2.796537 -47.662347 -6.908183 -19.240122 52.632838 -1.698231 8.329260 17.163594 -5.496800 13.922300 -42.927100 0.865378 1.536485 -0.865688 5.158961 1.299512 -8.036103 8.128841 -17.671138 5.986743 4.604700 -8.783500 2.928700 -85.273623 37.743295 46.930606 114.059059 -56.479913 -84.070161 0.167854 -0.219677 -70.787045 -7.125000 0.000000 0.000000 7.547875 40.685906 -30.040131 -8.445082 14.045282 -3.679144 3.015379 -0.203132 36.729728 7.125000 0.000000 0.000000 
7.042740 14.306287 -0.830856 175.220240 -35.975275 177.308412 -12.359280 6.524944 4.292071 6.458516 13.357269 50.718157 -1.452692 22.616633 -35.161885 0.063800 -1.630200 -4.484800 4.826195 -3.529342 -48.658313 -7.000784 -19.345068 53.020704 -1.669753 8.420890 16.962705 -5.623100 14.052900 -43.449800 0.885987 1.606773 -0.863740 4.803112 1.259802 -7.671852 7.709965 -16.602924 6.507701 4.234400 -8.254600 3.160300 -85.238848 36.525880 47.072855 113.322644 -56.581606 -83.451984 0.207101 -0.214985 -69.986355 -7.125000 0.000000 0.000000 7.397425 40.669618 -29.961036 -9.431768 15.134391 -3.868311 2.972227 -0.058114 34.513861 7.125000 0.000000 0.000000 
7.072146 14.318444 -0.903073 175.804472 -36.232548 177.580561 -11.252104 6.372857 3.851185 6.346778 13.234014 50.185343 -1.481631 21.984915 -34.369298 0.134700 -2.365600 -6.517200 5.823680 -4.390605 -49.435776 -7.056822 -19.376897 53.241265 -1.646681 8.537213 16.543017 -5.839400 14.270900 -44.333900 0.897047 1.555340 -0.918868 4.474398 1.197621 -7.599786 7.351180 -15.156033 7.041163 3.945300 -7.546200 3.325800 -84.916684 35.670528 47.374797 112.499190 -56.672631 -82.806056 0.230598 -0.216835 -69.724469 -7.125000 0.000000 0.000000 7.980078 40.558759 -28.305705 -10.925494 16.767654 -4.288164 2.948872 0.234733 28.635092 7.125000 0.000000 0.000000 
7.107372 14.334966 -0.979446 176.581795 -36.698127 177.746347 -9.931075 6.082995 3.311509 6.235783 13.108882 49.628559 -1.574715 21.447050 -33.444411 0.229500 -3.083400 -8.511000 6.811438 -5.045803 -49.992624 -7.086204 -19.392780 53.378742 -1.612811 8.542554 15.896366 -6.085100 14.510300 -45.322400 0.919963 1.474098 -0.973611 4.101821 1.109203 -7.519430 6.986025 -13.478506 7.520658 3.639800 -6.714300 3.455900 -84.393161 34.902730 47.824317 111.892651 -56.706118 -82.345318 0.264481 -0.247663 -69.656765 -7.125000 0.000000 0.000000 8.849513 40.359628 -25.878928 -12.992640 18.975982 -4.906215 2.864440 0.553798 21.052808 7.125000 0.000000 0.000000 
7.150598 14.345980 -1.048857 177.124307 -37.550578 177.973977 -8.851624 5.397501 2.813085 6.106194 13.004496 49.063126 -1.645897 20.896444 -32.565366 0.351700 -3.810500 -10.544200 7.405627 -5.725723 -50.317396 -7.149556 -19.386100 53.534373 -1.572346 8.403850 15.170129 -6.282600 14.696700 -46.105600 0.926646 1.291996 -1.031683 3.709771 0.977707 -7.530842 6.598092 -11.629986 7.878077 3.326300 -5.791700 3.500100 -83.619513 34.185617 48.567538 111.397251 -56.701415 -81.960251 0.329410 -0.331746 -69.342084 -7.125000 0.000000 0.000000 10.036275 39.947538 -23.065240 -15.691254 21.769361 -5.828076 2.709146 0.840099 13.638789 7.125000 0.000000 0.000000 
